<?xml version="1.0" standalone="no"?>
<!DOCTYPE svg PUBLIC "-//W3C//DTD SVG 20010904//EN"
 "http://www.w3.org/TR/2001/REC-SVG-20010904/DTD/svg10.dtd">
<svg version="1.0" xmlns="http://www.w3.org/2000/svg"
 width="512.000000pt" height="512.000000pt" viewBox="0 0 512.000000 512.000000"
 preserveAspectRatio="xMidYMid meet">

<g transform="translate(0.000000,512.000000) scale(0.100000,-0.100000)"
fill="#000000" stroke="none">
<path d="M1925 4628 c-136 -25 -285 -138 -352 -264 -48 -90 -63 -168 -63 -326
l0 -138 144 0 144 0 4 148 c3 140 4 149 31 195 15 26 47 60 69 75 l42 27 612
0 612 0 43 -30 c24 -17 57 -53 74 -80 30 -48 30 -50 30 -192 l0 -143 143 0
142 0 0 138 c0 157 -14 232 -61 324 -65 129 -217 241 -363 267 -75 14 -1179
13 -1251 -1z"/>
<path d="M5109 3805 c-4 -11 -158 -267 -343 -570 l-336 -550 32 -7 c66 -13 68
-21 68 -307 0 -208 -3 -268 -16 -312 -74 -250 -318 -400 -566 -348 -175 37
-328 180 -371 350 l-14 54 -1004 0 -1003 0 -8 -39 c-27 -127 -133 -258 -261
-321 -286 -141 -618 15 -692 326 -11 47 -15 125 -15 300 0 266 2 272 73 293
l36 11 -266 435 c-145 239 -300 493 -344 565 l-79 130 2 -1648 3 -1649 24 -19
c23 -19 77 -19 2530 -19 2505 0 2507 0 2529 20 12 11 24 31 27 43 8 31 1 3286
-6 3262z m-1584 -2050 c25 -24 25 -25 25 -228 0 -176 -3 -214 -20 -268 -37
-120 -117 -211 -236 -266 l-59 -28 -680 0 -680 0 -58 27 c-115 54 -209 172
-236 296 -6 29 -11 141 -11 248 0 194 0 195 25 219 l24 25 941 0 941 0 24 -25z"/>
</g>
</svg>
